<svg width="32" height="32" viewBox="0 0 32 32" fill="none" xmlns="http://www.w3.org/2000/svg">
<g clip-path="url(#clip0_80_251)">
<path d="M2.66669 6.66666L12 2.66666L20 6.66666L28.404 3.06532C28.5055 3.02183 28.6161 3.00422 28.7261 3.01405C28.836 3.02388 28.9418 3.06085 29.0339 3.12165C29.126 3.18245 29.2016 3.26517 29.2539 3.36239C29.3061 3.45961 29.3335 3.56828 29.3334 3.67866V25.3333L20 29.3333L12 25.3333L3.59602 28.9347C3.49457 28.9781 3.38391 28.9958 3.27397 28.9859C3.16404 28.9761 3.05826 28.9391 2.96614 28.8783C2.87401 28.8175 2.79843 28.7348 2.74616 28.6376C2.6939 28.5404 2.66659 28.4317 2.66669 28.3213V6.66666ZM21.3334 25.86L26.6667 23.5747V6.71066L21.3334 8.99599V25.86ZM18.6667 25.6853V8.98132L13.3334 6.31466V23.0187L18.6667 25.6853ZM10.6667 23.004V6.13999L5.33335 8.42532V25.2893L10.6667 23.004Z" fill="#181A25"/>
</g>
<defs>
<clipPath id="clip0_80_251">
<rect width="32" height="32" fill="white"/>
</clipPath>
</defs>
</svg>
